<?xml version="1.0" encoding="UTF-8" standalone="no"?><svg xmlns="http://www.w3.org/2000/svg" xmlns:xlink="http://www.w3.org/1999/xlink" contentStyleType="text/css" height="438px" preserveAspectRatio="none" style="width:396px;height:438px;background:#FFFFFF;" version="1.1" viewBox="0 0 396 438" width="396px" zoomAndPan="magnify"><defs/><g><g id="elem_c"><ellipse cx="295.2915" cy="43.6583" fill="#F1F1F1" rx="88.7915" ry="20.1583" style="stroke:#181818;stroke-width:0.5;"/><text fill="#000000" font-family="sans-serif" font-size="14" lengthAdjust="spacing" textLength="139" x="225.7915" y="46.505">Gérer ses chantiers</text></g><g id="elem_a"><ellipse cx="283.495" cy="160.699" fill="#F1F1F1" rx="83.995" ry="19.199" style="stroke:#181818;stroke-width:0.5;"/><text fill="#000000" font-family="sans-serif" font-size="14" lengthAdjust="spacing" textLength="128" x="219.2335" y="163.6356">Gérer ses artisans</text></g><g id="elem_ac"><ellipse cx="259.2667" cy="268.0533" fill="#F1F1F1" rx="130.7667" ry="28.5533" style="stroke:#181818;stroke-width:0.5;"/><text fill="#000000" font-family="sans-serif" font-size="14" lengthAdjust="spacing" textLength="178" x="164.7667" y="263.6525">Gérer quels artisans sont</text><text fill="#000000" font-family="sans-serif" font-size="14" lengthAdjust="spacing" textLength="184" x="163.7667" y="279.9493">affectés à quels chantiers</text></g><g id="elem_p"><ellipse cx="167.5488" cy="394.2603" fill="#F1F1F1" rx="161.5488" ry="37.7603" style="stroke:#181818;stroke-width:0.5;"/><text fill="#000000" font-family="sans-serif" font-size="14" lengthAdjust="spacing" textLength="207" x="59.0488" y="381.711">Calculer automatiquement la</text><text fill="#000000" font-family="sans-serif" font-size="14" lengthAdjust="spacing" textLength="171" x="77.0488" y="398.0079">paye d’un artisan donné</text><text fill="#000000" font-family="sans-serif" font-size="14" lengthAdjust="spacing" textLength="167" x="81.0488" y="414.3047">pour un chantier donné</text></g><!--MD5=[4206b647878100e6066f92523e03a5d6]
entity Entreprise--><g id="elem_Entreprise"><ellipse cx="133.5" cy="14" fill="#F1F1F1" rx="8" ry="8" style="stroke:#181818;stroke-width:0.5;"/><path d="M133.5,22 L133.5,49 M120.5,30 L146.5,30 M133.5,49 L120.5,64 M133.5,49 L146.5,64 " fill="none" style="stroke:#181818;stroke-width:0.5;"/><text fill="#000000" font-family="sans-serif" font-size="14" lengthAdjust="spacing" textLength="76" x="95.5" y="78.4951">Entreprise</text></g><!--MD5=[a8ff9257ab4573c2754dbdb014fed1b7]
link c to a--><!--MD5=[0ae2e084bc5ae57382411d670e6d2130]
link a to ac--><!--MD5=[f84e5b74347a0f3a1699ea7d0f690775]
link ac to p--><!--MD5=[545f4d4fb419a8ec5e42c2564d028392]
link Entreprise to c--><g id="link_Entreprise_c"><path d="M171.785,43.5 C181.525,43.5 191.264,43.5 201.004,43.5 " fill="none" id="Entreprise-to-c" style="stroke:#181818;stroke-width:1.0;"/><polygon fill="#181818" points="206.097,43.5,197.097,39.5,201.097,43.5,197.097,47.5,206.097,43.5" style="stroke:#181818;stroke-width:1.0;"/></g><!--MD5=[7164c984a0067deca1ef070f0e721290]
link Entreprise to a--><g id="link_Entreprise_a"><path d="M171.739,73.817 C198.324,94.199 233.096,120.857 256.747,138.989 " fill="none" id="Entreprise-to-a" style="stroke:#181818;stroke-width:1.0;"/><polygon fill="#181818" points="260.736,142.048,256.0292,133.3967,256.7686,139.005,251.1603,139.7444,260.736,142.048" style="stroke:#181818;stroke-width:1.0;"/></g><!--MD5=[5beb21a273f31643b4718316272d45dc]
link Entreprise to ac--><g id="link_Entreprise_ac"><path d="M142.92,81.673 C150.981,109.757 164.197,148.611 182.5,179.5 C194.672,200.042 211.983,220.238 227.109,236.042 " fill="none" id="Entreprise-to-ac" style="stroke:#181818;stroke-width:1.0;"/><polygon fill="#181818" points="230.903,239.962,227.5184,230.713,227.4258,236.3691,221.7697,236.2765,230.903,239.962" style="stroke:#181818;stroke-width:1.0;"/></g><!--MD5=[866fa234333e635eccf7a1fe3812e39c]
link Entreprise to p--><g id="link_Entreprise_p"><path d="M122.103,81.514 C108.58,131.278 90.2593,222.104 110.5,296.5 C115.843,316.14 126.281,335.8623 136.78,352.3464 " fill="none" id="Entreprise-to-p" style="stroke:#181818;stroke-width:1.0;"/><polygon fill="#181818" points="139.739,356.9072,138.196,347.18,137.0176,352.7127,131.4848,351.5342,139.739,356.9072" style="stroke:#181818;stroke-width:1.0;"/></g><!--MD5=[427d805e4baa09d6db43c11b978748e1]
@startuml
usecase c as "Gérer ses chantiers"
usecase a as "Gérer ses artisans"
usecase ac as "Gérer quels artisans sont \naffectés à quels chantiers"
usecase p as "Calculer automatiquement la \npaye d’un artisan donné \npour un chantier donné"

actor Entreprise 

'Pour aligner les 2 acteurs :
c -[hidden]-> a
a -[hidden]-> ac
ac -[hidden]-> p

Entreprise -> c
Entreprise -> a
Entreprise -> ac
Entreprise -> p
@enduml

@startuml
usecase c as "Gérer ses chantiers"
usecase a as "Gérer ses artisans"
usecase ac as "Gérer quels artisans sont \naffectés à quels chantiers"
usecase p as "Calculer automatiquement la \npaye d’un artisan donné \npour un chantier donné"

actor Entreprise 

c -[hidden]-> a
a -[hidden]-> ac
ac -[hidden]-> p

Entreprise -> c
Entreprise -> a
Entreprise -> ac
Entreprise -> p
@enduml

PlantUML version 1.2022.2(Sat Mar 05 16:30:19 UTC 2022)
(GPL source distribution)
Java Runtime: Java(TM) SE Runtime Environment
JVM: Java HotSpot(TM) 64-Bit Server VM
Default Encoding: UTF-8
Language: en
Country: US
--></g></svg>